<?xml version="1.0" encoding="UTF-8"?>
<svg version="1.1" xmlns="http://www.w3.org/2000/svg" width="3603" height="1191">
<path d="M0 0 C10.28445615 5.87683208 12.57023368 15.93745652 15.51358032 26.65567017 C15.72566132 27.43832245 15.93774231 28.22097473 16.15625 29.02734375 C16.50470474 30.30235245 16.50470474 30.30235245 16.86019897 31.6031189 C17.61804428 34.38046237 18.37176896 37.15890185 19.125 39.9375 C19.51634125 41.37638077 19.51634125 41.37638077 19.91558838 42.84432983 C25.0114454 61.58312784 29.95945235 80.35952581 34.8409729 99.15516663 C36.08129294 103.92679436 37.33740838 108.69374012 38.609375 113.45703125 C38.89312988 114.5246167 39.17688477 115.59220215 39.46923828 116.69213867 C39.9635201 118.54886397 40.46143696 120.40462863 40.96435547 122.2590332 C43.30123037 131.07916908 44.58537782 138.42598615 40.625 147 C36.92416602 152.68307487 32.26521038 157.19413197 25.625 159 C14.48550989 160.74054533 3.38332702 157.16898281 -7.3347168 154.45898438 C-9.35166048 153.92684131 -9.35166048 153.92684131 -11.375 154 C-11.50962646 154.58861816 -11.64425293 155.17723633 -11.78295898 155.78369141 C-15.96998757 174.06479005 -20.27696493 192.31629391 -24.61064148 210.56306458 C-25.95734625 216.23495409 -27.29850397 221.90813317 -28.63671875 227.58203125 C-32.05345567 242.06188877 -35.49154436 256.53547902 -39.0246582 270.98742676 C-47.08558087 303.9611011 -54.84098829 337.0087772 -62.6328125 370.046875 C-75.99883756 426.71849247 -75.99883756 426.71849247 -82.41967773 453.38769531 C-85.85614369 467.66272149 -89.27555985 481.94175101 -92.6875 496.22265625 C-93.17161119 498.24866845 -93.65572682 500.2746796 -94.1398468 502.3006897 C-96.08737844 510.45134675 -98.0348688 518.60201349 -99.98080444 526.75305176 C-101.3549264 532.5087281 -102.72978729 538.26422744 -104.10546875 544.01953125 C-104.32772818 544.94940165 -104.5499876 545.87927204 -104.77898216 546.83732033 C-108.30184302 561.57006758 -111.86273884 576.29330432 -115.4617157 591.00764465 C-117.99277114 601.36443207 -120.41632764 611.74345821 -122.79296875 622.13671875 C-124.71607586 630.51766703 -126.70249865 638.88354257 -128.6875 647.25 C-128.97391357 648.45739334 -128.97391357 648.45739334 -129.26611328 649.68917847 C-130.24419007 653.8117701 -131.2227977 657.93423548 -132.20166016 662.05664062 C-133.9093342 669.2494903 -135.6122965 676.44345537 -137.31552124 683.63735962 C-137.87655838 686.00658095 -138.43787032 688.37573702 -138.99926758 690.74487305 C-140.68978369 697.87950643 -142.37910366 705.01441281 -144.06251526 712.15072632 C-147.926425 728.53023203 -151.82126181 744.90100906 -155.8125 761.25 C-158.21150433 771.07756158 -160.59904954 780.9076588 -162.953125 790.74609375 C-163.16966232 791.65052719 -163.38619965 792.55496063 -163.60929871 793.48680115 C-164.6890605 798.00455791 -165.76024591 802.52410065 -166.81567383 807.04760742 C-170.20670023 821.54965292 -170.20670023 821.54965292 -172.08509827 828.213974 C-172.60201157 830.04943048 -173.0988864 831.89049413 -173.5949707 833.73168945 C-174.17499737 835.86638161 -174.79156621 837.99167608 -175.45385742 840.10229492 C-176.20391201 842.94272227 -176.66111634 845.07365288 -176.375 848 C-174.17670868 851.51233405 -171.34244609 854.13841178 -168.375 857 C-157.94951691 870.89249236 -153.54756975 888.53169515 -155.87109375 905.65625 C-159.02987398 923.21692655 -167.43296206 939.21179404 -182.0078125 949.9375 C-198.30953506 960.71242773 -215.58177928 965.27626744 -234.9375 961.75 C-253.28339387 957.7142736 -268.44738184 947.54988963 -278.6875 931.625 C-287.85306132 915.97248077 -291.05396993 898.55973405 -286.75 880.8125 C-284.76816905 873.24284121 -282.00766348 865.08356143 -276.74260139 859.1649828 C-274.95264799 856.33139522 -275.30415461 855.1338435 -276.02853394 851.90715027 C-276.23951595 850.93352728 -276.45049797 849.95990429 -276.66787338 848.95677757 C-276.90122517 847.98104097 -277.13457695 847.00530437 -277.375 846 C-277.57228825 845.14015314 -277.76957649 844.28030628 -277.97284317 843.39440346 C-278.59552387 840.75108996 -279.25245326 838.11831556 -279.91845703 835.4855957 C-280.16647694 834.49307517 -280.41449684 833.50055464 -280.6700325 832.47795773 C-281.48761091 829.20971647 -282.31018991 825.94275617 -283.1328125 822.67578125 C-283.71439351 820.35511985 -284.29565498 818.03437834 -284.87661743 815.71356201 C-286.10835642 810.79583781 -287.34228451 805.87867033 -288.57800293 800.96194458 C-290.51160689 793.26840565 -292.44025794 785.57363051 -294.36816406 777.87866211 C-296.90072558 767.77213541 -299.43519683 757.66609013 -301.97167969 747.56054688 C-306.02893664 731.39606906 -310.08051016 715.23017687 -314.125 699.0625 C-314.42880585 697.84861603 -314.73261169 696.63473206 -315.04562378 695.38406372 C-320.77852231 672.47147876 -326.43207641 649.53951268 -332.06347656 626.60180664 C-336.0993569 610.15917564 -336.0993569 610.15917564 -340.17578125 593.7265625 C-340.36532883 592.96502869 -340.5548764 592.20349487 -340.75016785 591.41888428 C-342.0711225 586.13951171 -343.46235449 580.88051327 -344.875 575.625 C-346.98077757 567.74392023 -348.79771043 559.81368486 -350.56811523 551.85131836 C-351.95121675 545.69359992 -353.54843391 539.66597801 -355.35375977 533.61791992 C-356.42098422 529.83709295 -357.33683061 526.03478152 -358.21484375 522.20703125 C-359.62348455 516.14555688 -361.07814922 510.09813271 -362.59375 504.0625 C-362.87423439 502.94540398 -362.87423439 502.94540398 -363.16038513 501.80574036 C-363.73100562 499.53692787 -364.30277567 497.26840847 -364.875 495 C-367.5011149 484.5895701 -370.06249787 474.16913976 -372.50439453 463.71386719 C-373.49023719 459.5084161 -374.51287192 455.31494393 -375.5625 451.125 C-375.8090332 450.13306641 -375.8090332 450.13306641 -376.06054688 449.12109375 C-376.74855757 446.37462189 -377.47915733 443.68752802 -378.375 441 C-378.53183258 441.65016586 -378.68866516 442.30033173 -378.85025024 442.97019958 C-385.81160784 471.8249596 -392.78238466 500.67717202 -399.875 529.5 C-405.97015649 554.27354062 -412.04868937 579.05111186 -418.11474609 603.83179474 C-418.62154444 605.90211135 -419.12838037 607.97241877 -419.63525391 610.04271698 C-426.03704178 636.19079124 -432.40569066 662.3460325 -438.69073486 688.52243042 C-443.41187132 708.17195375 -448.29920749 727.77776903 -453.22421265 747.37689209 C-457.12994621 762.92394339 -460.96275582 778.48012095 -464.578125 794.09716797 C-468.29632251 810.10220647 -472.33736374 826.02796651 -476.35693359 841.95947266 C-476.60813461 842.95834 -476.60813461 842.95834 -476.8644104 843.97738647 C-477.21906228 845.38227936 -477.57685308 846.78638209 -477.93710327 848.18984985 C-480.03602446 856.42407914 -479.50624412 860.59722089 -475.5 867.875 C-468.01655305 881.59905995 -466.74006505 896.82904396 -470.375 912 C-470.65150391 913.23943359 -470.65150391 913.23943359 -470.93359375 914.50390625 C-474.88983713 929.81284803 -484.77651388 943.30132248 -497.9375 952 C-499.73038719 953.03475204 -501.54293484 954.03631255 -503.375 955 C-504.68210937 955.70382812 -504.68210937 955.70382812 -506.015625 956.421875 C-522.03892142 964.38667147 -539.51264711 965.06425333 -556.41113281 959.68896484 C-574.73473863 953.26066852 -587.33502954 941.27783388 -595.70947266 924.01879883 C-602.95785319 908.37746024 -603.48942881 891.76212219 -598.609375 875.30078125 C-597.15979015 871.42451795 -595.34276469 867.97154971 -593.03515625 864.5390625 C-591.31568837 857.92572449 -596.72854462 849.78393022 -599.5 843.875 C-604.4236899 833.21125222 -609.13151863 822.45943239 -613.8125 811.6875 C-614.56336616 809.96059936 -615.31426133 808.23371133 -616.06518555 806.50683594 C-617.16698418 803.9729057 -618.26873283 801.43895389 -619.37019348 798.90487671 C-622.16761425 792.47087769 -624.98233532 786.04466893 -627.8125 779.625 C-633.4709925 766.78810345 -639.10956032 753.94249786 -644.74609375 741.09594727 C-648.02008386 733.63496088 -651.29450384 726.17424229 -654.58984375 718.72265625 C-659.6780091 707.21320499 -664.64522614 695.66142502 -669.51757812 684.05883789 C-672.50034795 676.98450009 -675.64150017 670.01472321 -678.9375 663.08203125 C-684.375 651.42391304 -684.375 651.42391304 -684.375 648 C-686.1384375 648.12375 -686.1384375 648.12375 -687.9375 648.25 C-704.59817699 648.19760793 -720.1453595 639.87517078 -731.88818359 628.55029297 C-744.39396588 615.51060208 -750.93733949 598.11894 -750.79663086 580.16235352 C-750.10161091 560.98393178 -741.53924317 544.42271517 -727.6875 531.3125 C-711.46428118 517.94842272 -693.95087481 514.51794419 -673.375 516 C-656.27996007 518.08566936 -640.99437042 528.53247867 -630.5 541.8125 C-619.0677247 557.93387552 -615.21772156 576.0723932 -618.51953125 595.484375 C-620.78048625 604.77597091 -624.29247782 613.57021239 -630.46875 620.97265625 C-631.85802971 624.08057078 -630.56061059 625.85758726 -629.375 629 C-628.25250656 631.72444353 -627.06951402 634.41974286 -625.875 637.11328125 C-625.52751709 637.90272629 -625.18003418 638.69217133 -624.82202148 639.50553894 C-623.67546454 642.10894691 -622.52520404 644.71070155 -621.375 647.3125 C-620.56351891 649.15352104 -619.7523259 650.99466909 -618.94140625 652.8359375 C-617.25632507 656.66146354 -615.5700048 660.48643975 -613.8828125 664.31103516 C-610.40610164 672.19469114 -606.94445218 680.08494839 -603.48278809 687.97521973 C-601.61941778 692.22206137 -599.75498524 696.46843661 -597.890625 700.71484375 C-597.52012024 701.55878693 -597.14961548 702.4027301 -596.7678833 703.27224731 C-594.09059144 709.37053936 -591.41257025 715.4685109 -588.734375 721.56640625 C-576.51758829 749.38343649 -564.32989008 777.21291031 -552.1875 805.0625 C-551.81688446 805.91241516 -551.44626892 806.76233032 -551.06442261 807.63800049 C-550.00753483 810.06194034 -548.95097327 812.48602209 -547.89453125 814.91015625 C-547.58264862 815.62541977 -547.27076599 816.34068329 -546.94943237 817.07762146 C-545.07569645 821.37850407 -543.21901156 825.68628613 -541.375 830 C-538.735 830 -536.095 830 -533.375 830 C-533.13700684 828.915979 -532.89901367 827.83195801 -532.65380859 826.71508789 C-530.20381354 815.59768996 -527.64306595 804.51046633 -525 793.4375 C-524.79113159 792.56094757 -524.58226318 791.68439514 -524.36706543 790.78128052 C-519.0685182 768.56119324 -513.60031717 746.38264686 -508.13423157 724.20330811 C-505.95525223 715.36080109 -503.78259665 706.51675751 -501.61328125 697.671875 C-500.99121229 695.13614876 -500.36914199 692.60042284 -499.74707031 690.06469727 C-498.85974026 686.44755959 -497.97252771 682.83039342 -497.08581543 679.21310425 C-493.6781713 665.31369468 -490.24276542 651.42174658 -486.75514221 637.54216003 C-485.06074369 630.78878813 -483.40954913 624.02704929 -481.8125 617.25 C-480.08380532 609.92081218 -478.28168039 602.61349006 -476.4375 595.3125 C-474.39867904 587.22954683 -472.46896695 579.12948909 -470.625 571 C-468.11411549 559.95935678 -465.39177557 548.97851485 -462.625 538 C-459.10299569 524.02389816 -455.68798041 510.02710597 -452.375 496 C-448.72631996 480.558849 -444.94742646 465.15514 -441.07446289 449.76879883 C-437.69240441 436.32508495 -434.40318089 422.8599732 -431.15405273 409.38354492 C-430.97382568 408.63794312 -430.79359863 407.89234131 -430.60791016 407.12414551 C-430.12286877 405.11712106 -429.63938052 403.10972144 -429.15600586 401.10229492 C-428.375 398 -428.375 398 -427.375 395 C-428.21417969 394.6596875 -428.21417969 394.6596875 -429.0703125 394.3125 C-442.15793904 386.8592076 -448.55250789 370.71781444 -452.375 357 C-455.86029439 341.57244689 -452.61955725 324.85087684 -445.375 311 C-442.66680894 306.71995683 -439.67466901 302.83827477 -436.375 299 C-435.74851562 298.26136719 -435.12203125 297.52273438 -434.4765625 296.76171875 C-423.45840525 284.79051414 -407.16079886 277.92190748 -391.0703125 276.76171875 C-372.5534313 276.37679452 -355.11994232 281.72356055 -341.5065918 294.74047852 C-327.94074351 308.26033308 -320.65961932 323.81620437 -320.125 343.0625 C-320.23040271 354.52504454 -322.53491684 367.72097319 -329.6875 377 C-333.86902977 384.43383071 -329.17866312 395.47973716 -327.15625 403.20703125 C-326.82272312 404.5042815 -326.48993482 405.80172182 -326.15782166 407.09933472 C-325.44486505 409.88017871 -324.72775065 412.65990209 -324.0072937 415.43881226 C-322.25315517 422.20727651 -320.5228177 428.98184505 -318.79110527 435.75607491 C-318.38956894 437.32652682 -317.98777869 438.89691382 -317.58574104 440.46723747 C-313.40377336 456.80329258 -309.35259844 473.17024288 -305.33718109 489.54791641 C-303.75945572 495.98168232 -302.17847781 502.41465054 -300.59765625 508.84765625 C-300.4244133 509.55280302 -300.25117035 510.25794979 -300.07267761 510.98446465 C-296.17151066 526.86017603 -292.22393592 542.72421164 -288.25987625 558.58432388 C-287.76203842 560.57681866 -287.26471057 562.56944001 -286.76754761 564.56210327 C-283.14115295 579.09101507 -279.4683359 593.60610383 -275.68063354 608.09390259 C-273.60480067 616.04612468 -271.66104259 624.02072526 -269.82666016 632.03173828 C-266.60395061 646.07578389 -263.24955227 660.08637214 -259.5 674 C-256.97248652 683.41718342 -254.63813447 692.88148726 -252.28613281 702.34375 C-251.2968402 706.31364446 -250.30137489 710.28195737 -249.3046875 714.25 C-245.37526469 729.90306112 -241.49135227 745.56591679 -237.6875 761.25 C-233.80493583 777.2557922 -233.80493583 777.2557922 -229.875 793.25 C-229.63177002 794.24418945 -229.38854004 795.23837891 -229.13793945 796.26269531 C-228.91710693 797.15053711 -228.69627441 798.03837891 -228.46875 798.953125 C-228.27990234 799.71786133 -228.09105469 800.48259766 -227.89648438 801.27050781 C-227.51984243 803.01278036 -227.51984243 803.01278036 -226.375 804 C-226.15996826 803.08976074 -225.94493652 802.17952148 -225.72338867 801.24169922 C-221.19366335 782.07208523 -216.64460284 762.90716575 -212.0625 743.75 C-211.83202972 742.7863855 -211.60155945 741.822771 -211.36410522 740.82995605 C-208.80754393 730.14295388 -206.24581227 719.45720857 -203.67578125 708.7734375 C-197.57810173 683.42071446 -191.52490956 658.05760028 -185.5 632.6875 C-185.30235046 631.85522385 -185.10470093 631.02294769 -184.90106201 630.16545105 C-179.80633988 608.71044403 -174.72314855 587.2527174 -169.6484375 565.79296875 C-169.40760563 564.77460371 -169.16677376 563.75623867 -168.91864395 562.70701408 C-166.56399951 552.7501663 -164.20982352 542.79320846 -161.85784912 532.8357296 C-155.59830798 506.3366801 -149.28747495 479.85018675 -142.94309998 453.37132263 C-142.13775139 450.00969367 -141.33303623 446.64791329 -140.52832031 443.28613281 C-139.10380752 437.33620571 -137.67741133 431.38673232 -136.25 425.4375 C-136.00586365 424.41954346 -135.76172729 423.40158691 -135.51019287 422.3527832 C-132.38747839 409.33474953 -129.24216858 396.32252952 -126.065979 383.31744385 C-123.19359608 371.55625466 -120.37077431 359.78769576 -117.67114258 347.98535156 C-115.55223698 338.73009805 -113.37732517 329.48867891 -111.1875 320.25 C-110.99978027 319.45796173 -110.81206055 318.66592346 -110.61865234 317.84988403 C-106.9245143 302.27101615 -103.19860923 286.69974244 -99.46875 271.12939453 C-97.28467223 262.00868956 -95.10709104 252.88660337 -92.95703125 243.7578125 C-92.76618958 242.94778275 -92.5753479 242.13775299 -92.37872314 241.30317688 C-92.19041931 240.50389267 -92.00211548 239.70460846 -91.80810547 238.88110352 C-91.434593 237.29573033 -91.06105807 235.71036244 -90.6875 234.125 C-90.50447327 233.34808807 -90.32144653 232.57117615 -90.13287354 231.77072144 C-87.44072635 220.35619056 -84.63300631 208.97500786 -81.75469971 197.60614014 C-78.88668621 186.26005462 -76.25102883 174.87285118 -73.72021484 163.44750977 C-72.0546434 155.93317723 -70.28528758 148.45603497 -68.375 141 C-69.60017334 140.71334473 -69.60017334 140.71334473 -70.85009766 140.42089844 C-73.90523686 139.69994979 -76.95750768 138.96810968 -80.00830078 138.22900391 C-81.9683887 137.75760252 -83.9314495 137.29861812 -85.89453125 136.83984375 C-87.13847656 136.53691406 -88.38242187 136.23398438 -89.6640625 135.921875 C-90.80568848 135.64956055 -91.94731445 135.37724609 -93.12353516 135.09667969 C-98.17439639 133.3930854 -102.19969954 130.63710192 -105.625 126.5625 C-106.10453125 126.00691406 -106.5840625 125.45132813 -107.078125 124.87890625 C-111.30383242 118.75672171 -111.04694439 112.17322456 -110.375 105 C-108.7556083 98.67459082 -104.1395767 94.27628565 -99.7890625 89.62109375 C-97.43907106 87.06956583 -95.24162338 84.44815094 -93.0625 81.75 C-89.57067458 77.4354932 -85.99927996 73.20286508 -82.375 69 C-78.83885091 64.89773502 -75.34636492 60.77197907 -71.9375 56.5625 C-67.79439009 51.45692535 -63.4926955 46.50199947 -59.17211914 41.54711914 C-56.01034162 37.91262149 -52.90649794 34.24479157 -49.875 30.5 C-45.17991149 24.70477083 -40.29848831 19.08023485 -35.38671875 13.46875 C-33.64171437 11.47261556 -31.9411729 9.46556365 -30.26953125 7.40625 C-22.38516727 -2.26427424 -11.78619063 -5.23633469 0 0 Z " fill="#EFB604" transform="translate(904.375,17)"/>
<path d="M0 0 C0.93070313 0.4134668 1.86140625 0.82693359 2.8203125 1.25292969 C14.94103802 6.68779629 26.63132839 12.9092914 38.19970703 19.4296875 C40.10064349 20.49567035 42.0081554 21.54999486 43.92138672 22.59375 C46.75453427 24.14091306 49.56608136 25.72186494 52.375 27.3125 C53.24374756 27.77954346 54.11249512 28.24658691 55.00756836 28.7277832 C56.19104858 29.41360474 56.19104858 29.41360474 57.3984375 30.11328125 C58.09630371 30.50298096 58.79416992 30.89268066 59.51318359 31.29418945 C61 33 61 33 61.32348633 36.19873047 C60.98879905 40.13162168 60.33256007 43.87560094 59.42578125 47.70703125 C59.26156677 48.42613174 59.09735229 49.14523224 58.92816162 49.88612366 C58.39766576 52.19686458 57.85561336 54.50469512 57.3125 56.8125 C56.94502282 58.39790095 56.57775443 59.98335031 56.21069336 61.56884766 C54.00238955 71.0460522 51.65955585 80.46795587 48.91015625 89.8046875 C48.13376174 92.53039871 47.50335161 95.21302162 47 98 C44.02870648 96.57947806 41.29381976 94.96106188 38.53515625 93.1640625 C37.66334717 92.60033936 36.79153809 92.03661621 35.89331055 91.45581055 C34.49205933 90.54955933 34.49205933 90.54955933 33.0625 89.625 C22.24989757 82.69251378 11.2344251 76.22129985 0 70 C-1.07096924 69.39961914 -1.07096924 69.39961914 -2.16357422 68.78710938 C-53.59070165 40.04373989 -114.22421115 22.86337697 -173 19 C-174.21461914 18.91532471 -175.42923828 18.83064941 -176.68066406 18.7434082 C-187.24950071 18.0393251 -197.7842647 17.79914455 -208.375 17.8125 C-209.19671692 17.81277191 -210.01843384 17.81304382 -210.86505127 17.81332397 C-225.64776118 17.83563063 -240.28802976 18.48907924 -255 20 C-255.97936523 20.09651855 -256.95873047 20.19303711 -257.96777344 20.29248047 C-304.32635485 24.99630854 -349.5780913 37.8800695 -392 57 C-392.92071289 57.41217773 -393.84142578 57.82435547 -394.79003906 58.24902344 C-422.58742891 70.78866749 -448.59343873 86.77328629 -473 105 C-473.60569824 105.45117188 -474.21139648 105.90234375 -474.83544922 106.3671875 C-486.99334289 115.46235307 -498.41383052 125.31866878 -509.52929688 135.64697266 C-510.96901781 136.97149679 -512.42965724 138.27316773 -513.890625 139.57421875 C-531.70725048 155.50914181 -547.15235888 173.82856222 -561.44921875 192.93017578 C-562.90624988 194.87487193 -564.37418817 196.81086195 -565.84375 198.74609375 C-573.15886315 208.46001095 -579.66405135 218.62654371 -586 229 C-586.4316748 229.70350586 -586.86334961 230.40701172 -587.30810547 231.13183594 C-600.16132166 252.18079677 -610.76503624 274.14158489 -620 297 C-620.37608398 297.93070312 -620.75216797 298.86140625 -621.13964844 299.8203125 C-635.46078053 335.8584665 -644.00447283 374.53407145 -648.1875 413 C-648.25928467 413.65516602 -648.33106934 414.31033203 -648.4050293 414.98535156 C-649.84198695 429.42843869 -650.20589014 443.9330674 -650.1875 458.4375 C-650.18722809 459.25671936 -650.18695618 460.07593872 -650.18667603 460.91998291 C-650.16434342 475.68415738 -649.50902266 490.30651178 -648 505 C-647.90348145 505.97936523 -647.80696289 506.95873047 -647.70751953 507.96777344 C-644.90823255 535.55614855 -639.01719131 562.48308188 -631 589 C-630.68836914 590.03141113 -630.37673828 591.06282227 -630.05566406 592.12548828 C-620.15169109 624.3579421 -606.02308707 654.94899736 -589 684 C-588.51740723 684.8245166 -588.03481445 685.6490332 -587.53759766 686.49853516 C-571.67852145 713.41949768 -552.32549422 740.65530133 -529.68701172 762.31030273 C-527.94793793 764.05214494 -526.36315691 765.87072732 -524.76953125 767.74609375 C-521.22949581 771.81497169 -517.45706912 775.52776579 -513.5 779.1875 C-512.80640381 779.83187012 -512.11280762 780.47624023 -511.39819336 781.14013672 C-499.12037144 792.48615344 -486.41879046 803.02953011 -473 813 C-472.28473145 813.53625 -471.56946289 814.0725 -470.83251953 814.625 C-449.31381375 830.72170777 -426.13873748 844.32269724 -401.97119141 856.04101562 C-400.02057424 856.98999063 -398.07876524 857.95550718 -396.13671875 858.921875 C-352.42711217 880.37540094 -303.37214357 893.1644002 -255 898 C-253.97003906 898.10296387 -252.94007813 898.20592773 -251.87890625 898.31201172 C-189.47418284 904.23971129 -126.36175678 897.05895781 -67 877 C-66.00291016 876.66355469 -65.00582031 876.32710937 -63.97851562 875.98046875 C-44.74919347 869.40925042 -26.02070173 861.41486469 -7.99414062 852.03173828 C-5.88460927 850.94029858 -3.76333969 849.87414434 -1.640625 848.80859375 C32.92433314 831.26657378 64.12436733 807.77252548 92.44677734 781.43554688 C94.08641084 779.92013585 95.73904423 778.41994273 97.39453125 776.921875 C102.71402134 772.09271629 107.85133606 767.30403922 112.46875 761.78125 C114.02093021 759.97565261 115.66097678 758.3391951 117.375 756.6875 C121.49188632 752.62526261 125.05479937 748.15991355 128.66650391 743.64990234 C130.10986187 741.86407058 131.57456708 740.09732037 133.04296875 738.33203125 C140.3469155 729.51696116 147.15353028 720.46220805 153.61962891 711.015625 C154.89746274 709.14972543 156.18798734 707.29326405 157.48046875 705.4375 C168.24522374 689.80792485 177.87086632 673.20755769 186.01074219 656.06396484 C187.10181964 653.78756583 188.22571461 651.5289259 189.3515625 649.26953125 C196.13931472 635.51501792 201.76964842 621.41308122 207 607 C207.33128906 606.08750488 207.66257812 605.17500977 208.00390625 604.23486328 C219.39304576 572.44415325 226.64168919 538.59432115 230 505 C230.10296387 503.97003906 230.20592773 502.94007813 230.31201172 501.87890625 C238.37241221 417.02186219 222.04555097 331.70087552 183.00048828 255.94775391 C181.99775018 253.99562005 181.01248293 252.03528113 180.02734375 250.07421875 C172.60503536 235.49260411 164.13695499 221.11165294 154.33203125 208.00390625 C153.76846924 207.24658203 153.20490723 206.48925781 152.62426758 205.70898438 C151.578206 204.32660449 150.51037319 202.96030055 149.41674805 201.61523438 C146.78156877 198.15312739 146.00618969 196.52251296 145.953125 192.04296875 C146.2593233 190.35366697 146.61583361 188.67329438 147 187 C147.25458984 185.82445557 147.50917969 184.64891113 147.77148438 183.43774414 C148.71128016 179.19554042 149.72936535 174.97334161 150.75 170.75 C151.11465261 169.22464175 151.47882566 167.69916878 151.8425293 166.17358398 C152.5614367 163.1611314 153.28315017 160.1493743 154.00732422 157.13818359 C154.85979359 153.59050969 155.70063902 150.04022713 156.53515625 146.48828125 C158.54297556 137.95005369 160.57140887 129.43096272 163 121 C167.2600358 122.57741892 169.68460993 125.79595208 172.5 129.1875 C173.02408447 129.81043945 173.54816895 130.43337891 174.08813477 131.07519531 C175.73515518 133.04227152 177.36932048 135.01936401 179 137 C179.50128418 137.60602051 180.00256836 138.21204102 180.51904297 138.83642578 C197.80617814 159.81529296 213.49938025 182.40248022 227 206 C227.60255615 207.0528418 227.60255615 207.0528418 228.21728516 208.12695312 C233.79284429 217.92005968 239.08859614 227.82555297 244.00683594 237.96484375 C245.00254621 240.0052176 246.0198683 242.03377221 247.0390625 244.0625 C272.92265058 296.30657323 287.51005745 354.12970782 293 412 C293.08218781 412.73913635 293.16437561 413.47827271 293.24905396 414.23980713 C294.09918032 422.42385803 294.18177513 430.58585965 294.203125 438.8046875 C294.20595238 439.55274784 294.20877975 440.30080818 294.21169281 441.07153702 C294.2266082 445.04720649 294.23588028 449.02284053 294.24023438 452.99853516 C294.24457724 456.21740312 294.25831522 459.43599672 294.28125 462.65478516 C294.42555145 483.33772433 293.68523941 503.46025891 291 524 C290.8044954 525.56672811 290.6090165 527.13345943 290.41357422 528.70019531 C289.92935532 532.37260621 289.39295864 536.02917732 288.8125 539.6875 C288.71151001 540.32790222 288.61052002 540.96830444 288.50646973 541.62811279 C278.59897034 603.7350216 256.35314473 665.59086081 223 719 C222.04813796 720.54815303 221.09631695 722.09633129 220.14453125 723.64453125 C207.445536 744.15303581 193.30029074 763.72594662 177.5546875 782.0078125 C175.10314638 784.87918941 172.73440595 787.80278357 170.375 790.75 C166.85780062 795.07741138 163.10125901 799.00588562 159.109375 802.89453125 C157.17854196 804.82178867 155.39327187 806.79938564 153.625 808.875 C147.36327113 816.15371499 140.45022698 822.90393903 133.1484375 829.1328125 C130.96810437 831.0277202 128.84643522 832.97909863 126.72973633 834.94458008 C120.6828128 840.5530849 114.46699253 845.87766756 108 851 C107.05326416 851.75555176 107.05326416 851.75555176 106.08740234 852.52636719 C77.59939238 875.21759319 46.94321201 895.22376314 14.07128906 910.99902344 C11.81710378 912.08838691 9.57686881 913.20395446 7.3359375 914.3203125 C-35.82277743 935.60643204 -82.56822303 949.34442692 -130 957 C-130.93295898 957.15162598 -131.86591797 957.30325195 -132.82714844 957.45947266 C-156.48621831 961.23323407 -179.90749544 962.35379112 -203.82836914 962.31567383 C-206.97206991 962.31105586 -210.1153825 962.31793077 -213.2590332 962.33618164 C-233.73514013 962.45384732 -253.66440546 961.63067917 -274 959 C-275.54611141 958.80972381 -277.09224996 958.61966785 -278.63842773 958.42993164 C-334.15960783 951.2302039 -388.23957693 933.65521266 -437.953125 908.05224609 C-439.35443689 907.33186749 -440.75821567 906.61627307 -442.1640625 905.90478516 C-461.62801832 896.04988592 -480.28920558 884.7418853 -498 872 C-498.74701172 871.46407227 -499.49402344 870.92814453 -500.26367188 870.37597656 C-514.36915427 860.21701574 -527.89049572 849.46390583 -541.0625 838.125 C-541.95533691 837.35820923 -541.95533691 837.35820923 -542.86621094 836.57592773 C-546.54953741 833.37301257 -550.02358045 830.01717912 -553.45288086 826.54443359 C-555.14780184 824.85245472 -556.91185454 823.2845985 -558.75 821.75 C-566.06162189 815.43219079 -572.86335761 808.4977985 -579.1328125 801.1484375 C-581.0277202 798.96810437 -582.97909863 796.84643522 -584.94458008 794.72973633 C-590.55281826 788.68310028 -595.88176954 782.46992931 -601 776 C-601.51433594 775.35289062 -602.02867187 774.70578125 -602.55859375 774.0390625 C-625.19437616 745.49602048 -645.22720302 714.9391714 -661.0078125 682.04931641 C-662.06804186 679.85946276 -663.15805764 677.68591986 -664.25 675.51171875 C-688.7702084 626.09245751 -703.55714675 571.67170336 -710 517 C-710.08687073 516.32164093 -710.17374146 515.64328186 -710.26324463 514.94436646 C-712.36537657 498.26638504 -712.3750486 481.55763045 -712.37060547 464.77709961 C-712.37044435 461.57732181 -712.38413361 458.37812535 -712.41162109 455.1784668 C-713.01613043 383.62467648 -696.95347301 312.9795349 -667 248 C-666.58782227 247.0920166 -666.17564453 246.1840332 -665.75097656 245.24853516 C-659.2921068 231.03746032 -651.90298536 217.45683094 -644 204 C-643.5241748 203.18901855 -643.04834961 202.37803711 -642.55810547 201.54248047 C-633.01746434 185.38609103 -622.49509235 169.83108068 -611 155 C-610.37061523 154.18354004 -610.37061523 154.18354004 -609.72851562 153.35058594 C-600.50648166 141.40233026 -590.86996286 129.89036967 -580.60546875 118.82421875 C-578.26425291 116.28643906 -575.97207009 113.71361639 -573.6875 111.125 C-565.96654885 102.52919287 -557.79261815 94.15284833 -548.96484375 86.6875 C-546.5404227 84.60529345 -544.21649968 82.42497793 -541.875 80.25 C-536.08551031 74.9715825 -529.98663527 70.16842071 -523.78515625 65.38671875 C-522.04240616 64.03294133 -520.31577729 62.66125802 -518.59375 61.28125 C-496.54741682 43.64291406 -472.68813776 28.64660861 -448 15 C-447.28070313 14.59974609 -446.56140625 14.19949219 -445.8203125 13.78710938 C-384.70379037 -20.05760618 -314.45518713 -38.93742727 -245 -44 C-244.26217285 -44.05784668 -243.5243457 -44.11569336 -242.76416016 -44.17529297 C-159.66713699 -50.53254537 -75.82620765 -33.80887428 0 0 Z " fill="#002D92" transform="translate(728,188)"/>
<path d="M0 0 C13.90119039 11.51237299 18.33637492 32.76485992 22.47705078 49.46850586 C22.73891237 50.52143546 23.00077396 51.57436506 23.27057076 52.65920162 C25.8527626 63.11556362 28.22773171 73.61333859 30.5546875 84.12890625 C31.0188166 86.21468506 31.48324894 88.30039641 31.94795227 90.38604736 C32.94567034 94.86648704 33.94153241 99.34733341 34.93588257 103.82852173 C36.53390482 111.02986413 38.13625004 118.23024023 39.73950195 125.43041992 C40.1550608 127.29674057 40.1550608 127.29674057 40.57901478 129.20076466 C41.15057317 131.76766246 41.72214502 134.33455727 42.29372978 136.9014492 C43.02872979 140.20246838 43.76338005 143.50356529 44.49793082 146.80468446 C49.37502873 168.72222438 54.27136855 190.63543213 59.17578125 212.546875 C59.35561302 213.35032687 59.53544479 214.15377874 59.72072601 214.98157763 C62.06273866 225.44506465 64.40537021 235.90841306 66.74820709 246.37171555 C69.32774599 257.89219445 71.90689062 269.41276162 74.48562759 280.93342006 C75.41294082 285.07617648 76.34046959 289.21888455 77.26818389 293.36155117 C81.07051255 310.34150928 84.85604068 327.32510481 88.625 344.3125 C90.59300702 339.23529265 92.28311763 334.23347901 93.66772461 328.95947266 C93.94276605 327.91909064 93.94276605 327.91909064 94.22336388 326.85769081 C94.82852574 324.56497239 95.4278798 322.27077666 96.02734375 319.9765625 C96.4603743 318.33238965 96.89383128 316.68832905 97.3276825 315.04437256 C98.2561104 311.52385763 99.18222107 308.00274492 100.10650635 304.48114014 C102.59811105 294.98982692 105.10639715 285.50291149 107.61328125 276.015625 C107.86838219 275.04969296 108.12348312 274.08376091 108.38631439 273.0885582 C113.26934795 254.6019619 118.24051713 236.14016852 123.25 217.6875 C129.1632857 195.90420667 135.02110956 174.10694177 140.8203125 152.29296875 C141.45050991 149.92355803 142.08072845 147.55415293 142.71096802 145.18475342 C146.45999554 131.08799195 146.45999554 131.08799195 150.19952393 116.9887085 C174.41166419 25.57948334 174.41166419 25.57948334 192.625 7.3125 C193.22183594 6.69246094 193.81867188 6.07242187 194.43359375 5.43359375 C205.66132762 -5.29015206 220.7152699 -7.03934321 235.4375 -7 C236.63181641 -7.01611328 237.82613281 -7.03222656 239.05664062 -7.04882812 C255.64707092 -7.05785939 268.89217086 -2.44487021 280.734375 9.25 C287.86796282 16.63802226 292.58753561 24.41947677 296.01953125 34.0078125 C296.47049667 35.25390793 296.47049667 35.25390793 296.93057251 36.525177 C300.17478415 45.63657307 302.88097621 54.88063165 305.5 64.1875 C305.78001862 65.1736026 306.06003723 66.1597052 306.34854126 67.1756897 C315.666989 100.01540839 324.35322025 133.03473955 333.181036 166.00866127 C338.03840794 184.15050325 342.93806107 202.28056121 347.86717224 220.4030304 C349.3772744 225.95534358 350.88637223 231.50792994 352.39555359 237.06049347 C352.77172034 238.44446692 353.14791043 239.82843403 353.52412415 241.21239471 C358.33209213 258.90033733 363.11577255 276.59484627 367.89764023 294.28985977 C368.55337781 296.71624571 369.2092417 299.14259747 369.86514282 301.56893921 C370.89423074 305.37588806 371.92302264 309.18291678 372.95156479 312.99001312 C373.32637218 314.37725516 373.70124904 315.76447843 374.07620621 317.15167999 C376.61188811 326.53350091 379.1261527 335.92081329 381.625 345.3125 C388.07580576 317.80952221 394.36457302 290.27438283 400.49630737 262.69857788 C401.92687783 256.26507307 403.3607361 249.83230346 404.79516602 243.3996582 C405.04570142 242.27609767 405.29623682 241.15253714 405.5543642 239.99492931 C406.07122849 237.67699018 406.58810005 235.35905267 407.10497856 233.04111671 C407.90178943 229.46744733 408.69836972 225.89372661 409.49488831 222.31999207 C415.50844216 195.34031193 421.53416968 168.36335503 427.56827736 141.38826466 C429.21747819 134.0154671 430.86599839 126.64251903 432.51257324 119.26913452 C436.29225646 102.34496421 440.08349405 85.42349463 443.90370941 68.50841522 C444.57913432 65.515723 445.25256858 62.52258955 445.92559814 59.52935791 C446.84292031 55.45513731 447.77018714 51.38333882 448.70788765 47.31376076 C449.16393172 45.32673999 449.61117287 43.33770477 450.05784607 41.34855652 C453.51251144 26.52339151 458.896744 9.83494526 471.625 0.3125 C485.18408539 -7.55533771 498.97735417 -8.56885843 514.421875 -6.07421875 C525.89050083 -2.63059697 535.23765532 5.3096772 541.625 15.3125 C548.88987902 30.01120872 547.83198348 45.999151 544.66796875 61.73828125 C544.45024307 62.8422374 544.2325174 63.94619354 544.00819397 65.08360291 C540.89371992 80.43096489 537.01645521 95.60481388 533.20916367 110.79148865 C532.09742424 115.23304238 530.99398227 119.67665688 529.88989258 124.12011719 C528.27855191 130.60260384 526.66510402 137.08455819 525.04878521 143.56580544 C522.24111236 154.82524973 519.45056528 166.08883904 516.671875 177.35546875 C516.37152123 178.57322589 516.37152123 178.57322589 516.06509972 179.81558418 C515.25616056 183.09562358 514.44734794 186.37569413 513.63872814 189.65581226 C511.36718659 198.87013347 509.09195166 208.08354189 506.81640625 217.296875 C506.50228507 218.56878598 506.50228507 218.56878598 506.18181801 219.86639214 C502.79926141 233.56253068 499.41400587 247.2580011 496.02734375 260.953125 C495.79098709 261.90892645 495.55463043 262.8647279 495.31111145 263.84949303 C492.90368579 273.58465637 490.49581543 283.31970947 488.0867424 293.05446529 C486.88192168 297.92299794 485.6772493 302.79156727 484.47265625 307.66015625 C484.23360062 308.62632685 483.99454498 309.59249744 483.74824524 310.58794594 C480.26231279 324.67813278 476.78573896 338.77060543 473.31463623 352.86445236 C471.82403682 358.91551494 470.33196463 364.96621456 468.83988571 371.01691246 C467.66320059 375.78929406 466.48754855 380.56192472 465.31451416 385.33520508 C461.06208885 402.63715578 456.79442969 419.93253099 452.21875 437.15234375 C451.74907555 438.92574379 451.74907555 438.92574379 451.26991272 440.73497009 C445.65543685 461.64423958 439.15491043 483.98008257 419.89306641 496.43212891 C416.27846573 498.45782635 412.53356242 499.96074517 408.625 501.3125 C407.93148438 501.56257813 407.23796875 501.81265625 406.5234375 502.0703125 C390.71804812 506.8455578 370.20602238 504.92524373 355.625 497.3125 C352.35522717 495.23081233 349.48571315 492.92256019 346.625 490.3125 C345.93792969 489.70535156 345.25085937 489.09820313 344.54296875 488.47265625 C335.00115491 479.55115153 330.18230789 468.72410455 326.25 456.5 C326.00178497 455.74178955 325.75356995 454.9835791 325.49783325 454.20239258 C317.61382344 430.03499843 311.24651474 405.40074569 304.65430355 380.85804653 C302.13917543 371.49788904 299.60745453 362.14222185 297.0767498 352.78626633 C292.14132242 334.53921976 287.21406978 316.28997767 282.29296875 298.0390625 C274.02711823 267.38394191 265.74882065 236.73219838 257.45680618 206.08414459 C256.18074753 201.36749088 254.90531395 196.65066852 253.63021278 191.93375587 C251.38013106 183.61017343 249.12854251 175.28700142 246.87423134 166.96456337 C245.80622384 163.02159912 244.7388871 159.07845655 243.67333984 155.13482666 C242.69141877 151.50084293 241.70750265 147.86740553 240.72199059 144.23439407 C240.36092427 142.90197235 240.00059156 141.56935159 239.64103127 140.23652267 C239.15108215 138.42082176 238.65826403 136.60589574 238.1652832 134.79101562 C237.89029495 133.77511353 237.6153067 132.75921143 237.33198547 131.71252441 C236.70617978 129.32798421 236.70617978 129.32798421 235.625 127.3125 C235.16210823 129.01825447 235.16210823 129.01825447 234.68986511 130.75846863 C207.78826505 229.88505735 207.78826505 229.88505735 196.7728653 269.73368835 C195.83103973 273.14130096 194.88990978 276.54910529 193.94921875 279.95703125 C193.75558998 280.65849525 193.56196121 281.35995926 193.3624649 282.08267975 C189.48616508 296.13287967 185.65496416 310.19530845 181.82577133 324.25840759 C180.76489694 328.15418406 179.70312762 332.04971626 178.6411438 335.94519043 C178.46433653 336.59376723 178.28752927 337.24234403 178.1053642 337.91057467 C177.38706343 340.54547507 176.66875183 343.18037251 175.95035625 345.81524706 C174.0030301 352.9577074 172.05760368 360.10067076 170.11779785 367.24517822 C163.60294262 391.23672786 157.0836388 415.22218769 149.96484375 439.04296875 C149.60548327 440.25227775 149.60548327 440.25227775 149.23886299 441.48601723 C142.27827763 464.83647239 134.85875845 486.31447323 112.203125 498.62890625 C95.87680076 506.25724051 75.52716993 506.0803649 58.625 500.1875 C52.42787194 497.52601301 47.51383244 493.92395188 42.625 489.3125 C41.68914062 488.43851563 41.68914062 488.43851563 40.734375 487.546875 C22.98570885 469.15861728 18.81076265 439.15036344 12.87995529 415.3368454 C12.10301016 412.2228704 11.31995866 409.11044277 10.53699589 405.9979763 C3.25627923 377.05262235 -3.87951167 348.07105208 -11.00144768 319.08630371 C-16.02116302 298.6599257 -21.07975105 278.24317738 -26.1368103 257.82601929 C-27.74772029 251.32204538 -29.3579671 244.81790742 -30.96801758 238.3137207 C-31.23259231 237.24491071 -31.49716703 236.17610071 -31.76975918 235.07490253 C-32.56786901 231.85071843 -33.36596652 228.62653128 -34.1640625 225.40234375 C-35.21645817 221.15087564 -36.26886815 216.89941108 -37.32128906 212.64794922 C-37.57757112 211.61263659 -37.83385317 210.57732397 -38.09790134 209.51063824 C-39.5761254 203.53914811 -41.05465774 197.56773443 -42.53346157 191.59638786 C-47.95864544 169.68931506 -53.3728361 147.77959442 -58.76237011 125.86372185 C-59.98475953 120.89445297 -61.21135988 115.92623728 -62.43994141 110.95849609 C-64.00331764 104.63613854 -65.55569066 98.31115327 -67.09997559 91.98410034 C-67.64329532 89.7644361 -68.18989274 87.54557061 -68.74035645 85.32766724 C-81.31031603 34.63598552 -81.31031603 34.63598552 -70.72265625 15.3125 C-63.90775214 5.19878723 -54.94191249 -2.40353448 -43.2109375 -5.9921875 C-28.67466984 -8.62707105 -12.57486615 -8.40666099 0 0 Z " fill="#FFD400" transform="translate(1193.375,333.6875)"/>
<path d="M0 0 C10.71785847 7.25983243 15.96556867 18.13005238 18.38671911 30.51537454 C19.31616703 37.37373554 19.09764378 44.32178294 19.08100891 51.2303009 C19.08403229 53.01158183 19.08792271 54.79286147 19.09260148 56.57413882 C19.10286616 61.45194973 19.10070355 66.32968701 19.09642088 71.20750391 C19.09395088 76.47484604 19.10297125 81.74217057 19.11045837 87.00950623 C19.12319986 97.32236361 19.12499974 107.63519495 19.12265811 117.94805888 C19.12087414 126.33205632 19.1226263 134.71604585 19.12688255 143.10004234 C19.12747774 144.2938901 19.12807293 145.48773786 19.12868616 146.71776282 C19.12989792 149.14317698 19.13111206 151.56859113 19.13232853 153.99400529 C19.143202 176.73366026 19.14104252 199.4733004 19.13494369 222.21295621 C19.129775 243.00637243 19.14102905 263.79974179 19.16004191 284.59314875 C19.17942371 305.95415695 19.18767568 327.31514299 19.18391865 348.67616004 C19.1820071 360.66457803 19.18448977 372.65295615 19.19863319 384.64136696 C19.21055233 394.84753502 19.21194588 405.05363867 19.19984303 415.25980762 C19.19395806 420.46443935 19.19284442 425.66895327 19.20484543 430.87357712 C19.21571651 435.64370719 19.21258624 440.41362127 19.19858374 445.18374129 C19.1959402 446.90371604 19.19829252 448.62370777 19.20631961 450.34366582 C19.27650939 466.5133919 17.57783458 481.53260017 6.1953125 494.02734375 C-3.59525701 503.04059016 -15.4939114 506.06866205 -28.6015625 505.58984375 C-38.86997634 504.41069575 -48.8976817 500.17023064 -56.1796875 492.71484375 C-65.08040964 481.22931594 -68.30013242 469.47960576 -68.8046875 455.15234375 C-68.84335938 454.23904297 -68.88203125 453.32574219 -68.921875 452.38476562 C-69.01499002 450.16164451 -69.10080916 447.93850762 -69.1796875 445.71484375 C-70.21416016 446.85759766 -70.21416016 446.85759766 -71.26953125 448.0234375 C-84.03137775 462.07198164 -97.34772832 474.20018399 -113.1796875 484.71484375 C-113.953125 485.24851562 -114.7265625 485.7821875 -115.5234375 486.33203125 C-145.60051288 505.92449233 -185.72185003 509.27213423 -220.22851562 502.57055664 C-245.46402025 497.21470384 -267.65816374 484.48953187 -286.1796875 466.71484375 C-287.06140625 465.89628906 -287.943125 465.07773437 -288.8515625 464.234375 C-316.86140547 437.45095171 -331.47783372 399.15712542 -338.1796875 361.71484375 C-338.34484863 360.81540039 -338.51000977 359.91595703 -338.68017578 358.98925781 C-348.48183788 302.85523018 -341.23505649 238.13703389 -308.1796875 190.71484375 C-289.93790962 165.85951293 -265.78127087 147.52678579 -236.2421875 138.40234375 C-235.50524658 138.17192383 -234.76830566 137.94150391 -234.0090332 137.70410156 C-219.65745308 133.54386912 -205.23427608 132.21481956 -190.34838867 132.32373047 C-187.74669846 132.33981586 -185.14656572 132.32376867 -182.54492188 132.3046875 C-140.3085844 132.25124581 -106.32315326 148.94286702 -76.50390625 178.35400391 C-75.63378906 179.22847168 -74.76367188 180.10293945 -73.8671875 181.00390625 C-72.54267578 182.33349365 -72.54267578 182.33349365 -71.19140625 183.68994141 C-70.19560547 184.69226807 -70.19560547 184.69226807 -69.1796875 185.71484375 C-69.17748766 184.5864903 -69.17748766 184.5864903 -69.17524338 183.43534184 C-69.13805751 165.06147816 -69.07888803 146.68780276 -68.99578476 128.31408787 C-68.95611553 119.42838331 -68.9236619 110.54276576 -68.90869141 101.65698242 C-68.89561165 93.90464082 -68.86848757 86.15249165 -68.82507443 78.40025848 C-68.80260053 74.30226506 -68.78676826 70.20450772 -68.78780365 66.10644722 C-68.7867302 20.30495126 -68.7867302 20.30495126 -55.0546875 4.90234375 C-40.93311757 -8.20828605 -16.21849638 -9.56251848 0 0 Z M-220.48046875 227.1484375 C-245.65433823 256.91714917 -250.74925045 298.45916422 -247.93652344 335.95654297 C-245.5189861 360.75824204 -238.37138184 385.33496181 -222.1796875 404.71484375 C-221.65890625 405.38128906 -221.138125 406.04773438 -220.6015625 406.734375 C-210.1873949 419.54986765 -193.32156271 429.18246729 -177.078125 432.3125 C-153.6164001 434.73390047 -132.00349869 431.811462 -112.6171875 417.58984375 C-111.46265041 416.64201417 -110.31611716 415.68430981 -109.1796875 414.71484375 C-108.61507812 414.29203125 -108.05046875 413.86921875 -107.46875 413.43359375 C-86.45360056 397.07791183 -78.24757686 367.9150171 -74.61328125 342.80078125 C-70.3715542 306.32552715 -74.1796386 264.79513158 -97.1796875 234.71484375 C-100.03011533 231.2189386 -103.01720848 227.93029562 -106.1796875 224.71484375 C-106.93894531 223.94269531 -107.69820312 223.17054688 -108.48046875 222.375 C-125.29509321 206.27589148 -145.36137114 201.1439627 -168.11328125 201.4453125 C-188.63712398 202.08757242 -206.63076522 212.49926042 -220.48046875 227.1484375 Z " fill="#FFD400" transform="translate(3090.1796875,332.28515625)"/>
<path d="M0 0 C11.35330458 8.85034262 16.26435074 21.4304399 18.1875 35.375 C18.48282608 40.99755075 18.47871061 46.61236775 18.47460938 52.24145508 C18.48064345 53.93297654 18.48757018 55.62449502 18.49531555 57.31600952 C18.51014253 60.94392074 18.5189384 64.57177752 18.52302551 68.19971657 C18.52978402 73.95698563 18.55159477 79.71413967 18.57556152 85.47135925 C18.62441351 97.71004571 18.65675059 109.94875673 18.6875 122.1875 C18.72068751 135.36673069 18.75696277 148.54591604 18.81163073 161.72507781 C18.83097725 166.50040431 18.84632548 171.27567105 18.85197449 176.05103493 C17.40131812 231.4497082 17.40131812 231.4497082 41.125 279.4296875 C51.82299592 289.48062721 65.58266656 292.96259917 79.9375 292.8125 C80.98881104 292.80275146 82.04012207 292.79300293 83.12329102 292.78295898 C104.28420906 292.30332235 122.3362699 282.90146977 137.3515625 268.265625 C164.76830098 239.26104452 160.4785267 194.17765482 160.49342227 157.03339815 C160.49799613 152.86983881 160.51605369 148.70633941 160.53321838 144.54281616 C160.58171034 132.24177675 160.61331381 119.94070365 160.63452148 107.6395874 C160.65111753 98.01596926 160.67404682 88.39246911 160.71754223 78.76892984 C160.73908148 73.85146279 160.74739971 68.93422141 160.74514949 64.01671052 C160.7468327 60.95125058 160.76097652 57.8859353 160.77836227 54.82052803 C160.78389091 53.41743982 160.78451385 52.01432073 160.77942467 50.61123085 C160.72244481 33.04235098 163.48469492 16.58098097 175.8125 3.3125 C185.72668936 -6.34321888 197.6411089 -8.04733584 210.91137695 -7.98632812 C223.20787794 -7.74912947 231.99159019 -3.9101328 241.1875 4.375 C253.28446675 18.52995694 254.34792209 36.28200244 254.32121277 54.07489014 C254.32347833 55.20076577 254.32574388 56.32664141 254.32807809 57.48663449 C254.33437111 61.23166021 254.33359176 64.9766493 254.33276367 68.72167969 C254.33575808 71.41814304 254.33913336 74.11460359 254.34294128 76.81106567 C254.35121596 83.35918773 254.35399467 89.90730077 254.35455366 96.45542762 C254.35503031 101.78255495 254.35709243 107.10967933 254.36025429 112.43680573 C254.36905191 127.56899049 254.37367502 142.70116818 254.37292381 157.83335552 C254.37286388 159.05473125 254.37286388 159.05473125 254.37280273 160.30078125 C254.37276185 161.11603575 254.37272097 161.93129026 254.37267885 162.77124944 C254.37227256 175.97800898 254.38184025 189.18473998 254.3959411 202.39149126 C254.41033443 215.98031308 254.41720967 229.56912101 254.41634732 243.15795064 C254.41601639 250.77571014 254.41871784 258.39343972 254.42952538 266.01119232 C254.43866935 272.49747045 254.4407738 278.98370508 254.43401595 285.46998689 C254.43077039 288.77314111 254.43172799 292.07619555 254.4393692 295.37934494 C254.53597909 340.0547596 254.53597909 340.0547596 240.15234375 355.5703125 C235.03511731 360.46191168 229.94123633 363.3103863 223.1875 365.375 C222.30384766 365.66310547 222.30384766 365.66310547 221.40234375 365.95703125 C209.80928908 368.14478583 197.52628957 366.90612613 187.5 360.625 C186.0420583 359.56933747 184.60333584 358.48649729 183.1875 357.375 C182.57003906 356.89546875 181.95257812 356.4159375 181.31640625 355.921875 C170.15448994 346.07751228 167.19232829 330.98859271 166.0625 316.875 C165.93294922 315.35519531 165.93294922 315.35519531 165.80078125 313.8046875 C165.59054328 311.32855142 165.38625433 308.85207974 165.1875 306.375 C164.4140625 307.2928125 163.640625 308.210625 162.84375 309.15625 C136.90166893 339.79456221 104.83532927 361.4068293 64.1875 365.375 C28.42618438 368.23951409 -7.32383744 363.40638099 -35.87890625 339.91015625 C-64.27066432 315.37453576 -71.96871065 282.41354035 -74.62412548 246.38947415 C-75.1263803 238.35211237 -75.09023779 230.30916057 -75.07128906 222.25952148 C-75.07400998 220.26901625 -75.07757698 218.27851202 -75.08190918 216.28800964 C-75.0908995 210.96212933 -75.08754658 205.6363279 -75.08115101 200.3104465 C-75.07602715 194.69834122 -75.08079937 189.08624194 -75.08392334 183.47413635 C-75.08754191 174.0663229 -75.08281686 164.65854106 -75.07324219 155.25073242 C-75.06233315 144.40724272 -75.06590949 133.56382811 -75.076895 122.72034019 C-75.08599426 113.36006832 -75.08724112 103.99981894 -75.08201766 94.63954407 C-75.0789161 89.07041287 -75.07843891 83.5013169 -75.08509064 77.93218803 C-75.09090309 72.70264124 -75.08679643 67.47319074 -75.07530212 62.24365425 C-75.07267751 60.33541142 -75.07338257 58.42716036 -75.07782745 56.5189209 C-75.11699412 37.98427444 -74.76874426 19.28470133 -61.97265625 4.52734375 C-58.5605354 1.1275633 -55.06598177 -1.37893702 -50.8125 -3.625 C-50.07257812 -4.0375 -49.33265625 -4.45 -48.5703125 -4.875 C-33.52460762 -11.79698563 -13.38685927 -8.91254512 0 0 Z " fill="#FFD400" transform="translate(3327.8125,471.625)"/>
<path d="M0 0 C11.35330458 8.85034262 16.26435074 21.4304399 18.1875 35.375 C18.48282608 40.99755075 18.47871061 46.61236775 18.47460938 52.24145508 C18.48064345 53.93297654 18.48757018 55.62449502 18.49531555 57.31600952 C18.51014253 60.94392074 18.5189384 64.57177752 18.52302551 68.19971657 C18.52978402 73.95698563 18.55159477 79.71413967 18.57556152 85.47135925 C18.62441351 97.71004571 18.65675059 109.94875673 18.6875 122.1875 C18.72068751 135.36673069 18.75696277 148.54591604 18.81163073 161.72507781 C18.83097725 166.50040431 18.84632548 171.27567105 18.85197449 176.05103493 C17.40131812 231.4497082 17.40131812 231.4497082 41.125 279.4296875 C51.82299592 289.48062721 65.58266656 292.96259917 79.9375 292.8125 C80.98881104 292.80275146 82.04012207 292.79300293 83.12329102 292.78295898 C104.28420906 292.30332235 122.3362699 282.90146977 137.3515625 268.265625 C164.76830098 239.26104452 160.4785267 194.17765482 160.49342227 157.03339815 C160.49799613 152.86983881 160.51605369 148.70633941 160.53321838 144.54281616 C160.58171034 132.24177675 160.61331381 119.94070365 160.63452148 107.6395874 C160.65111753 98.01596926 160.67404682 88.39246911 160.71754223 78.76892984 C160.73908148 73.85146279 160.74739971 68.93422141 160.74514949 64.01671052 C160.7468327 60.95125058 160.76097652 57.8859353 160.77836227 54.82052803 C160.78389091 53.41743982 160.78451385 52.01432073 160.77942467 50.61123085 C160.72244481 33.04235098 163.48469492 16.58098097 175.8125 3.3125 C185.72668936 -6.34321888 197.6411089 -8.04733584 210.91137695 -7.98632812 C223.20787794 -7.74912947 231.99159019 -3.9101328 241.1875 4.375 C253.28446675 18.52995694 254.34792209 36.28200244 254.32121277 54.07489014 C254.32347833 55.20076577 254.32574388 56.32664141 254.32807809 57.48663449 C254.33437111 61.23166021 254.33359176 64.9766493 254.33276367 68.72167969 C254.33575808 71.41814304 254.33913336 74.11460359 254.34294128 76.81106567 C254.35121596 83.35918773 254.35399467 89.90730077 254.35455366 96.45542762 C254.35503031 101.78255495 254.35709243 107.10967933 254.36025429 112.43680573 C254.36905191 127.56899049 254.37367502 142.70116818 254.37292381 157.83335552 C254.37286388 159.05473125 254.37286388 159.05473125 254.37280273 160.30078125 C254.37276185 161.11603575 254.37272097 161.93129026 254.37267885 162.77124944 C254.37227256 175.97800898 254.38184025 189.18473998 254.3959411 202.39149126 C254.41033443 215.98031308 254.41720967 229.56912101 254.41634732 243.15795064 C254.41601639 250.77571014 254.41871784 258.39343972 254.42952538 266.01119232 C254.43866935 272.49747045 254.4407738 278.98370508 254.43401595 285.46998689 C254.43077039 288.77314111 254.43172799 292.07619555 254.4393692 295.37934494 C254.53597909 340.0547596 254.53597909 340.0547596 240.15234375 355.5703125 C235.03511731 360.46191168 229.94123633 363.3103863 223.1875 365.375 C222.30384766 365.66310547 222.30384766 365.66310547 221.40234375 365.95703125 C209.80928908 368.14478583 197.52628957 366.90612613 187.5 360.625 C186.0420583 359.56933747 184.60333584 358.48649729 183.1875 357.375 C182.57003906 356.89546875 181.95257812 356.4159375 181.31640625 355.921875 C170.15448994 346.07751228 167.19232829 330.98859271 166.0625 316.875 C165.93294922 315.35519531 165.93294922 315.35519531 165.80078125 313.8046875 C165.59054328 311.32855142 165.38625433 308.85207974 165.1875 306.375 C164.4140625 307.2928125 163.640625 308.210625 162.84375 309.15625 C136.90166893 339.79456221 104.83532927 361.4068293 64.1875 365.375 C28.42618438 368.23951409 -7.32383744 363.40638099 -35.87890625 339.91015625 C-64.27066432 315.37453576 -71.96871065 282.41354035 -74.62412548 246.38947415 C-75.1263803 238.35211237 -75.09023779 230.30916057 -75.07128906 222.25952148 C-75.07400998 220.26901625 -75.07757698 218.27851202 -75.08190918 216.28800964 C-75.0908995 210.96212933 -75.08754658 205.6363279 -75.08115101 200.3104465 C-75.07602715 194.69834122 -75.08079937 189.08624194 -75.08392334 183.47413635 C-75.08754191 174.0663229 -75.08281686 164.65854106 -75.07324219 155.25073242 C-75.06233315 144.40724272 -75.06590949 133.56382811 -75.076895 122.72034019 C-75.08599426 113.36006832 -75.08724112 103.99981894 -75.08201766 94.63954407 C-75.0789161 89.07041287 -75.07843891 83.5013169 -75.08509064 77.93218803 C-75.09090309 72.70264124 -75.08679643 67.47319074 -75.07530212 62.24365425 C-75.07267751 60.33541142 -75.07338257 58.42716036 -75.07782745 56.5189209 C-75.11699412 37.98427444 -74.76874426 19.28470133 -61.97265625 4.52734375 C-58.5605354 1.1275633 -55.06598177 -1.37893702 -50.8125 -3.625 C-50.07257813 -4.0375 -49.33265625 -4.45 -48.5703125 -4.875 C-33.52460762 -11.79698563 -13.38685927 -8.91254512 0 0 Z " fill="#FFD400" transform="translate(1899.8125,471.625)"/>
<path d="M0 0 C10.79278428 7.77009346 17.38569604 19.41964501 19.55859375 32.45703125 C20.16913081 39.44071829 20.38199935 46.45081931 20.55859375 53.45703125 C21.21988281 52.57917969 21.21988281 52.57917969 21.89453125 51.68359375 C46.11452874 20.78221764 77.98455619 -0.49465489 117.37953186 -5.32609558 C120.86476868 -5.67296703 124.33556093 -5.72527946 127.8359375 -5.74609375 C128.99036095 -5.75464386 128.99036095 -5.75464386 130.16810608 -5.7633667 C131.79084935 -5.77275507 133.41361116 -5.77932593 135.03637695 -5.78320312 C137.45885745 -5.79282091 139.88045534 -5.82386629 142.30273438 -5.85546875 C156.74625311 -5.95517764 170.47615506 -4.11547514 184.18359375 0.64453125 C185.06329834 0.94568848 185.94300293 1.2468457 186.84936523 1.55712891 C216.64199765 12.11812214 236.81327754 33.22136143 250.46630859 61.11767578 C266.11977281 94.64281975 261.72093731 136.59283315 261.72585082 172.62078643 C261.72657049 175.59552868 261.72872143 178.57026656 261.73134804 181.54500771 C261.74053132 191.96368317 261.7446907 202.38234601 261.74389648 212.80102539 C261.74329342 222.45395027 261.75390802 232.10681969 261.76964015 241.75973052 C261.78275935 250.11205083 261.78807874 258.46435306 261.78744107 266.81668359 C261.78718794 271.77772865 261.78993801 276.73872392 261.80061913 281.69975853 C261.81037792 286.35645856 261.81032665 291.01306181 261.80310249 295.66976547 C261.80206718 297.36431713 261.80435583 299.05887509 261.81046295 300.75341606 C261.87564043 320.10935831 261.21059731 340.48507416 247.55859375 355.68359375 C238.13300039 364.67157028 227.43636355 367.91936469 214.55859375 368.45703125 C202.20852901 368.04712546 191.32618639 363.91665747 182.30078125 355.359375 C169.08691888 340.93078537 168.25596677 322.53602829 168.28735352 303.95214844 C168.28295726 302.21593992 168.27765186 300.47973351 168.27151489 298.74353027 C168.26007758 295.02453069 168.25456005 291.30558761 168.2536335 287.58657074 C168.25167666 281.68129917 168.23353227 275.77614244 168.21287537 269.87091064 C168.16389206 255.19619921 168.1329277 240.52145662 168.11157227 225.84667969 C168.09495604 214.44874574 168.07186878 203.05091097 168.02855152 191.65304303 C168.01052323 186.75634101 167.99813552 181.85977364 167.99984932 176.96303558 C169.55774875 124.59234503 169.55774875 124.59234503 147.53125 79.0625 C132.25559863 66.6302372 113.2998503 66.36714011 94.55859375 67.45703125 C79.95929868 69.18261812 66.312276 76.7058109 55.55859375 86.45703125 C54.77742188 87.15699219 53.99625 87.85695313 53.19140625 88.578125 C29.92583807 110.55116161 27.44864557 142.30016744 26.55859375 172.45703125 C26.38860891 182.30449478 26.38042138 192.15388235 26.35936356 202.00257301 C26.34850637 206.94370007 26.32822445 211.88476291 26.3062439 216.82585144 C26.24488589 230.86067795 26.1902811 244.89549573 26.15722656 258.93041992 C26.1388111 266.71652947 26.10980743 274.50252608 26.06922185 282.28855246 C26.04830404 286.390052 26.03271607 290.49141042 26.03041458 294.59296608 C26.02824825 298.44693289 26.01217992 302.30060368 25.98602486 306.15447998 C25.9789111 307.55636138 25.97669166 308.95827894 25.98012733 310.36017418 C26.01383306 326.74599511 23.32411777 343.27812682 11.99609375 355.89453125 C1.4864446 365.29258289 -11.17787212 368.82082999 -25.078125 368.328125 C-36.00576206 367.18607272 -47.05574217 362.8977902 -54.44140625 354.45703125 C-65.13466879 340.26001885 -67.7652364 324.77854923 -67.70210266 307.340271 C-67.70592821 306.19367988 -67.70975376 305.04708876 -67.71369523 303.86575246 C-67.72393055 300.06247185 -67.72005116 296.2593449 -67.71606445 292.45605469 C-67.7193261 289.71327789 -67.72553728 286.97050938 -67.73155212 284.22773743 C-67.74424607 277.57359776 -67.74609943 270.91949856 -67.74375186 264.26534882 C-67.74196239 258.85104068 -67.74373177 253.43674474 -67.7479763 248.02243805 C-67.74857149 247.2492312 -67.74916668 246.47602435 -67.74977991 245.67938699 C-67.75099177 244.10814736 -67.75220591 242.53690774 -67.75342228 240.96566811 C-67.76427762 226.25818498 -67.762145 211.55072482 -67.75603744 196.84324041 C-67.75087144 183.42131378 -67.76211893 169.99945979 -67.78113566 156.57754752 C-67.80056066 142.7603854 -67.80876182 128.94325756 -67.8050124 115.12608171 C-67.80310724 107.38307951 -67.8055206 99.64013911 -67.81972694 91.89714813 C-67.83170144 85.30445658 -67.8329783 78.71186484 -67.82093678 72.11917177 C-67.8150899 68.76302743 -67.81549025 65.40721286 -67.82593918 62.05105782 C-67.94965247 19.2019962 -67.94965247 19.2019962 -54.06640625 4.45703125 C-40.17837469 -8.42901146 -15.88760294 -10.04096506 0 0 Z " fill="#FFD400" transform="translate(2363.44140625,469.54296875)"/>
<path d="M0 0 C-3.0851746 0.94602608 -5.49259007 1.01578237 -8.6875 0.625 C-9.86892578 0.48964844 -9.86892578 0.48964844 -11.07421875 0.3515625 C-13 0 -13 0 -14 -1 C-23.80431578 -1.6954224 -32.20322147 -1.25777623 -41.4609375 2.22265625 C-44 3 -44 3 -47 2 C-46.34 2 -45.68 2 -45 2 C-45 1.34 -45 0.68 -45 0 C-31.48099144 -5.43347713 -13.64586205 -4.83650807 0 0 Z " fill="#D79445" transform="translate(243,536)"/>
<path d="M0 0 C0.99 0 1.98 0 3 0 C3 0.66 3 1.32 3 2 C3.80824219 2.13277344 4.61648438 2.26554688 5.44921875 2.40234375 C6.51785156 2.57894531 7.58648437 2.75554688 8.6875 2.9375 C9.74324219 3.11152344 10.79898437 3.28554688 11.88671875 3.46484375 C13.7254088 3.78090465 15.55956607 4.13252881 17.375 4.5625 C21.01994177 5.1699903 24.63027042 5.10527836 28.3125 5.0625 C29.42334961 5.05573242 29.42334961 5.05573242 30.55664062 5.04882812 C32.37112899 5.03712175 34.18557534 5.01918898 36 5 C35.67 5.99 35.34 6.98 35 8 C22.66076425 8.69408201 11.41180223 6.86261055 0 2 C0 1.34 0 0.68 0 0 Z " fill="#E1A849" transform="translate(341,972)"/>
<path d="M0 0 C2.26767796 2.80087137 3.6862131 5.37743272 4.9375 8.75 C6.22439143 12.12185507 7.62450992 15.31028081 9.3125 18.5 C9.869375 19.655 10.42625 20.81 11 22 C10.67 22.66 10.34 23.32 10 24 C6.56151012 20.83952084 5.13664747 17.35214759 3.3125 13.125 C2.99216797 12.41730469 2.67183594 11.70960938 2.34179688 10.98046875 C0.68611362 7.18898941 -0.43904536 4.22477607 0 0 Z " fill="#D48936" transform="translate(221,665)"/>
<path d="M0 0 C0.99 0.33 1.98 0.66 3 1 C-1.29 5.29 -5.58 9.58 -10 14 C-10.33 13.01 -10.66 12.02 -11 11 C-9.54540569 9.35086118 -8.08620743 7.70578218 -6.625 6.0625 C-5.81289062 5.14597656 -5.00078125 4.22945312 -4.1640625 3.28515625 C-2 1 -2 1 0 0 Z " fill="#D1832C" transform="translate(179,547)"/>
<path d="M0 0 C2.83433303 2.83433303 4.05581357 6.31114844 5.625 9.9375 C5.94984375 10.66646484 6.2746875 11.39542969 6.609375 12.14648438 C9 17.62583705 9 17.62583705 9 21 C8.34 21 7.68 21 7 21 C0.29612756 7.55125285 0.29612756 7.55125285 0 0 Z " fill="#DE9F45" transform="translate(310,728)"/>
<path d="M0 0 C0.33 0 0.66 0 1 0 C1.99959542 10.40119561 1.95285575 19.67084562 0 30 C-2 27 -2 27 -2 24 C-1.34 24 -0.68 24 0 24 C0 16.08 0 8.16 0 0 Z " fill="#E1AB62" transform="translate(285,586)"/>
<path d="M0 0 C2.79227512 2.70001934 5.25943188 5.48309305 7.625 8.5625 C8.21539062 9.32691406 8.80578125 10.09132813 9.4140625 10.87890625 C10.66195497 12.54788559 11.84404849 14.26607273 13 16 C10.05600726 15.65598287 9.02678774 15.02683744 6.89453125 12.890625 C6.20746094 12.01921875 5.52039063 11.1478125 4.8125 10.25 C4.11769531 9.38890625 3.42289063 8.5278125 2.70703125 7.640625 C0.99022343 4.98487652 0.37481288 3.11038744 0 0 Z " fill="#D38835" transform="translate(164,631)"/>
<path d="M0 0 C1.0354051 3.1848935 0.94040666 5.13031874 0.00390625 8.328125 C-0.33930664 9.52695312 -0.33930664 9.52695312 -0.68945312 10.75 C-0.93630859 11.575 -1.18316406 12.4 -1.4375 13.25 C-1.68048828 14.09046875 -1.92347656 14.9309375 -2.17382812 15.796875 C-2.77373949 17.86715734 -3.38570819 19.93393897 -4 22 C-4.33 22 -4.66 22 -5 22 C-4.85923685 20.0412957 -4.7122324 18.08303907 -4.5625 16.125 C-4.48128906 15.03445313 -4.40007813 13.94390625 -4.31640625 12.8203125 C-4 10 -4 10 -3 8 C-2.34 8 -1.68 8 -1 8 C-1.020625 7.05125 -1.04125 6.1025 -1.0625 5.125 C-1 2 -1 2 0 0 Z " fill="#475E93" transform="translate(781,254)"/>
<path d="M0 0 C0.66 0 1.32 0 2 0 C3.03040167 2.28779038 4.04952018 4.57951136 5.0625 6.875 C5.50432617 7.85146484 5.50432617 7.85146484 5.95507812 8.84765625 C6.69661513 10.54010541 7.35439001 12.26868575 8 14 C7.67 14.66 7.34 15.32 7 16 C0 5.23282443 0 5.23282443 0 0 Z " fill="#D6903B" transform="translate(257,749)"/>
<path d="M0 0 C0.66 0 1.32 0 2 0 C3.03033882 2.12040742 4.04902854 4.24647908 5.0625 6.375 C5.91521484 8.15003906 5.91521484 8.15003906 6.78515625 9.9609375 C7.18605469 10.96382812 7.58695312 11.96671875 8 13 C7.67 13.66 7.34 14.32 7 15 C4.47138427 12.73946101 3.16143472 10.60099936 1.8125 7.5 C1.46832031 6.7265625 1.12414062 5.953125 0.76953125 5.15625 C0 3 0 3 0 0 Z " fill="#D7923D" transform="translate(281,804)"/>
<path d="M0 0 C3.12881416 0.63279388 5.47746008 1.69711412 8.1875 3.375 C9.22970703 4.00535156 9.22970703 4.00535156 10.29296875 4.6484375 C12 6 12 6 13 9 C7.97290493 7.42903279 3.97133531 4.38006951 0 1 C0 0.67 0 0.34 0 0 Z " fill="#D38B39" transform="translate(178,649)"/>
<path d="M0 0 C0.33 0 0.66 0 1 0 C1.02712066 1.43739513 1.04645067 2.87493863 1.0625 4.3125 C1.07410156 5.11300781 1.08570313 5.91351563 1.09765625 6.73828125 C1 9 1 9 0 12 C-0.66 12 -1.32 12 -2 12 C-2.33 12.66 -2.66 13.32 -3 14 C-2.69024532 12.22868439 -2.37709575 10.45796222 -2.0625 8.6875 C-1.88847656 7.70136719 -1.71445312 6.71523438 -1.53515625 5.69921875 C-1 3 -1 3 0 0 Z " fill="#41548D" transform="translate(891,309)"/>
<path d="M0 0 C0.91330404 3.03050885 1.06558338 5.47968569 0.75 8.625 C0.68296875 9.40101563 0.6159375 10.17703125 0.546875 10.9765625 C0 13 0 13 -3 15 C-2.35812082 9.86496656 -1.31727753 5.0056546 0 0 Z " fill="#E8B961" transform="translate(386,784)"/>
<path d="M0 0 C3 1 3 1 4.6875 3.75 C5.93950669 6.85020705 6.28970125 8.71671912 6 12 C2.82781157 8.37464179 1.57097403 4.48849722 0 0 Z " fill="#DA9438" transform="translate(302,714)"/>
<path d="M0 0 C1.21236328 0.01353516 1.21236328 0.01353516 2.44921875 0.02734375 C3.37154297 0.04474609 3.37154297 0.04474609 4.3125 0.0625 C1.2655371 1.75683918 -1.51571466 2.55717112 -4.9375 3.1875 C-6.27554688 3.43886719 -6.27554688 3.43886719 -7.640625 3.6953125 C-8.31609375 3.81648437 -8.9915625 3.93765625 -9.6875 4.0625 C-9.0275 3.7325 -8.3675 3.4025 -7.6875 3.0625 C-7.6875 2.4025 -7.6875 1.7425 -7.6875 1.0625 C-4.80538698 0.10179566 -2.98899956 -0.04331883 0 0 Z " fill="#CE7D20" transform="translate(205.6875,534.9375)"/>
<path d="M0 0 C0.33 0.99 0.66 1.98 1 3 C-1.64 5.64 -4.28 8.28 -7 11 C-7 7.22089522 -6.00296038 6.53893899 -3.5 3.8125 C-2.8503125 3.09707031 -2.200625 2.38164062 -1.53125 1.64453125 C-1.0259375 1.10183594 -0.520625 0.55914062 0 0 Z " fill="#EDBA37" transform="translate(471,313)"/>
<path d="M0 0 C3.28928814 2.19285876 3.59463532 2.84761689 4.75 6.4375 C5.01296875 7.21996094 5.2759375 8.00242187 5.546875 8.80859375 C6 11 6 11 5 14 C4.15973604 12.23244474 3.32801278 10.46082737 2.5 8.6875 C2.0359375 7.70136719 1.571875 6.71523438 1.09375 5.69921875 C0 3 0 3 0 0 Z " fill="#DFA355" transform="translate(288,820)"/>
<path d="M0 0 C0.33 0 0.66 0 1 0 C0.125 7.625 0.125 7.625 -1 11 C-1.66 11 -2.32 11 -3 11 C-2.53199289 6.94393835 -2.12046792 3.53411321 0 0 Z " fill="#DB9940" transform="translate(309,885)"/>
<path d="M0 0 C0.66 0 1.32 0 2 0 C1.45660208 4.56454251 0.20536179 7.9728176 -2 12 C-3.15957207 8.52128379 -2.77456651 7.65780355 -1.5625 4.3125 C-1.13130859 3.10013672 -1.13130859 3.10013672 -0.69140625 1.86328125 C-0.46324219 1.24839844 -0.23507812 0.63351562 0 0 Z " fill="#E7B151" transform="translate(399,733)"/>
<path d="M0 0 C3.32382587 4.33542505 4.12018668 6.47141274 4 12 C1.07034088 9.07034088 0.05866431 6.319947 -0.125 2.1875 C-0.08375 1.465625 -0.0425 0.74375 0 0 Z " fill="#D79144" transform="translate(221,665)"/>
<path d="M0 0 C0 3.19610552 -0.54671542 4.41717626 -2 7.1875 C-2.37125 7.90292969 -2.7425 8.61835937 -3.125 9.35546875 C-3.41375 9.89816406 -3.7025 10.44085937 -4 11 C-4.33 11 -4.66 11 -5 11 C-4.50769231 4.6 -4.50769231 4.6 -1.9375 1.5625 C-0.9784375 0.7890625 -0.9784375 0.7890625 0 0 Z " fill="#D38935" transform="translate(165,564)"/>
<path d="M0 0 C3 1 3 1 4.1875 3.375 C5 6 5 6 5 9 C4.01 9.33 3.02 9.66 2 10 C1.7834375 8.63875 1.7834375 8.63875 1.5625 7.25 C1.13590527 4.78523044 0.64925779 2.41152893 0 0 Z " fill="#DB9941" transform="translate(310,871)"/>
<path d="M0 0 C1.53166168 4.08443115 0.63081652 7.79455657 0 12 C-0.66 12 -1.32 12 -2 12 C-1.85831863 10.56208484 -1.71148957 9.1246763 -1.5625 7.6875 C-1.48128906 6.88699219 -1.40007813 6.08648437 -1.31640625 5.26171875 C-1 3 -1 3 0 0 Z " fill="#3B4F8A" transform="translate(876,372)"/>
<path d="M0 0 C0.98120464 3.05263664 0.98120464 4.94736336 0 8 C-0.66 8 -1.32 8 -2 8 C-2.33 9.32 -2.66 10.64 -3 12 C-2.67 8.7 -2.34 5.4 -2 2 C-1.34 2 -0.68 2 0 2 C0 1.34 0 0.68 0 0 Z " fill="#354A86" transform="translate(880,360)"/>
<path d="M0 0 C0.99 0 1.98 0 3 0 C6 5.625 6 5.625 6 9 C5.34 9 4.68 9 4 9 C2.68 6.03 1.36 3.06 0 0 Z " fill="#D7943E" transform="translate(275,565)"/>
<path d="M0 0 C0.66 0 1.32 0 2 0 C4.09230769 4.43076923 4.09230769 4.43076923 3.625 7.3125 C3.41875 7.869375 3.2125 8.42625 3 9 C0 3.375 0 3.375 0 0 Z " fill="#DB9532" transform="translate(323,760)"/>
<path d="M0 0 C2.40072955 2.88087546 4.47291037 5.56404834 6 9 C2.83884224 7.63016497 2.0072908 7.0109362 0 4 C0 2.68 0 1.36 0 0 Z " fill="#D78E2C" transform="translate(312,944)"/>
<path d="M0 0 C1.39195915 4.17587745 -0.17676781 6.13474776 -2 10 C-2.98120464 6.94736336 -2.98120464 5.05263664 -2 2 C-1.34 2 -0.68 2 0 2 C0 1.34 0 0.68 0 0 Z " fill="#E0A33B" transform="translate(375,835)"/>
<path d="M0 0 C0.66 0 1.32 0 2 0 C3.25664978 2.90600261 4 4.79604584 4 8 C3.34 8 2.68 8 2 8 C0.74335022 5.09399739 0 3.20395416 0 0 Z " fill="#D89333" transform="translate(291,687)"/>
</svg>
